<?xml version="1.0" encoding="UTF-8" standalone="no"?>
<!DOCTYPE svg PUBLIC "-//W3C//DTD SVG 1.1//EN"
 "http://www.w3.org/Graphics/SVG/1.1/DTD/svg11.dtd">
<!-- Generated by graphviz version 2.43.0 (0)
 -->
<!-- Title: G Pages: 1 -->
<svg width="316pt" height="482pt"
 viewBox="0.00 0.00 316.00 482.00" xmlns="http://www.w3.org/2000/svg" xmlns:xlink="http://www.w3.org/1999/xlink">
<g id="graph0" class="graph" transform="scale(1 1) rotate(0) translate(4 478)">
<title>G</title>
<polygon fill="white" stroke="transparent" points="-4,4 -4,-478 312,-478 312,4 -4,4"/>
<g id="clust1" class="cluster">
<title>cluster_root</title>
<g id="a_clust1"><a xlink:title="eventq_index=0&#10;full_system=false&#10;sim_quantum=0&#10;time_sync_enable=false&#10;time_sync_period=100000000000&#10;time_sync_spin_threshold=100000000">
<path fill="#bab6ae" stroke="#000000" d="M20,-8C20,-8 288,-8 288,-8 294,-8 300,-14 300,-20 300,-20 300,-454 300,-454 300,-460 294,-466 288,-466 288,-466 20,-466 20,-466 14,-466 8,-460 8,-454 8,-454 8,-20 8,-20 8,-14 14,-8 20,-8"/>
<text text-anchor="middle" x="154" y="-450.8" font-family="Arial" font-size="14.00" fill="#000000">root </text>
<text text-anchor="middle" x="154" y="-435.8" font-family="Arial" font-size="14.00" fill="#000000">: Root</text>
</a>
</g>
</g>
<g id="clust2" class="cluster">
<title>cluster_system</title>
<g id="a_clust2"><a xlink:title="auto_unlink_shared_backstore=false&#10;cache_line_size=64&#10;eventq_index=0&#10;exit_on_work_items=false&#10;external_memory_ranges=&#10;init_param=0&#10;m5ops_base=0&#10;mem_mode=timing&#10;mem_ranges=0:536870912&#10;memories=system.physmem&#10;mmap_using_noreserve=false&#10;multi_thread=false&#10;&#10;um_work_ids=16&#10;&#13;eadfile=&#10;&#13;edirect_paths=&#10;shadow_rom_ranges=&#10;shared_backstore=&#10;symbolfile=&#10;thermal_components=&#10;thermal_model=Null&#10;work_begin_ckpt_count=0&#10;work_begin_cpu_id_exit=&#45;1&#10;work_begin_exit_count=0&#10;work_cpus_ckpt_count=0&#10;work_end_ckpt_count=0&#10;work_end_exit_count=0&#10;work_item_id=&#45;1&#10;workload=system.workload">
<path fill="#e4e7eb" stroke="#000000" d="M28,-16C28,-16 280,-16 280,-16 286,-16 292,-22 292,-28 292,-28 292,-408 292,-408 292,-414 286,-420 280,-420 280,-420 28,-420 28,-420 22,-420 16,-414 16,-408 16,-408 16,-28 16,-28 16,-22 22,-16 28,-16"/>
<text text-anchor="middle" x="154" y="-404.8" font-family="Arial" font-size="14.00" fill="#000000">system </text>
<text text-anchor="middle" x="154" y="-389.8" font-family="Arial" font-size="14.00" fill="#000000">: System</text>
</a>
</g>
</g>
<g id="clust7" class="cluster">
<title>cluster_system_membus</title>
<g id="a_clust7"><a xlink:title="clk_domain=system.clk_domain&#10;eventq_index=0&#10;forward_latency=1&#10;frontend_latency=2&#10;header_latency=1&#10;power_model=&#10;power_state=system.membus.power_state&#10;&#13;esponse_latency=2&#10;use_default_range=false&#10;width=16">
<path fill="#6f798c" stroke="#000000" d="M36,-154C36,-154 272,-154 272,-154 278,-154 284,-160 284,-166 284,-166 284,-232 284,-232 284,-238 278,-244 272,-244 272,-244 36,-244 36,-244 30,-244 24,-238 24,-232 24,-232 24,-166 24,-166 24,-160 30,-154 36,-154"/>
<text text-anchor="middle" x="154" y="-228.8" font-family="Arial" font-size="14.00" fill="#000000">membus </text>
<text text-anchor="middle" x="154" y="-213.8" font-family="Arial" font-size="14.00" fill="#000000">: IOXBar</text>
</a>
</g>
</g>
<g id="clust11" class="cluster">
<title>cluster_system_cpu</title>
<g id="a_clust11"><a xlink:title="clk_domain=system.clk_domain&#10;config_file=/home/asiclab/Desktop/gem5_proj/configs/tgen_ucie_workload_256B.cfg&#10;cpu_id=&#45;1&#10;elastic_req=false&#10;eventq_index=0&#10;max_outstanding_reqs=0&#10;&#10;umThreads=1&#10;power_model=&#10;power_state=system.cpu.power_state&#10;progress_check=1000000000&#10;sids=&#10;socket_id=0&#10;ssids=&#10;stream_gen=none&#10;system=system">
<path fill="#bab6ae" stroke="#000000" d="M54,-24C54,-24 118,-24 118,-24 124,-24 130,-30 130,-36 130,-36 130,-102 130,-102 130,-108 124,-114 118,-114 118,-114 54,-114 54,-114 48,-114 42,-108 42,-102 42,-102 42,-36 42,-36 42,-30 48,-24 54,-24"/>
<text text-anchor="middle" x="86" y="-98.8" font-family="Arial" font-size="14.00" fill="#000000">cpu </text>
<text text-anchor="middle" x="86" y="-83.8" font-family="Arial" font-size="14.00" fill="#000000">: TrafficGen</text>
</a>
</g>
</g>
<g id="clust13" class="cluster">
<title>cluster_system_tlm</title>
<g id="a_clust13"><a xlink:title="addr_ranges=0:536870912&#10;eventq_index=0&#10;port_data=transactor&#10;port_type=tlm_slave">
<path fill="#bab6ae" stroke="#000000" d="M173,-284C173,-284 256,-284 256,-284 262,-284 268,-290 268,-296 268,-296 268,-362 268,-362 268,-368 262,-374 256,-374 256,-374 173,-374 173,-374 167,-374 161,-368 161,-362 161,-362 161,-296 161,-296 161,-290 167,-284 173,-284"/>
<text text-anchor="middle" x="214.5" y="-358.8" font-family="Arial" font-size="14.00" fill="#000000">tlm </text>
<text text-anchor="middle" x="214.5" y="-343.8" font-family="Arial" font-size="14.00" fill="#000000">: ExternalSlave</text>
</a>
</g>
</g>
<!-- system_system_port -->
<g id="node1" class="node">
<title>system_system_port</title>
<path fill="#b6b8bc" stroke="#000000" d="M119.5,-328C119.5,-328 52.5,-328 52.5,-328 46.5,-328 40.5,-322 40.5,-316 40.5,-316 40.5,-304 40.5,-304 40.5,-298 46.5,-292 52.5,-292 52.5,-292 119.5,-292 119.5,-292 125.5,-292 131.5,-298 131.5,-304 131.5,-304 131.5,-316 131.5,-316 131.5,-322 125.5,-328 119.5,-328"/>
<text text-anchor="middle" x="86" y="-306.3" font-family="Arial" font-size="14.00" fill="#000000">system_port</text>
</g>
<!-- system_membus_cpu_side_ports -->
<g id="node2" class="node">
<title>system_membus_cpu_side_ports</title>
<path fill="#586070" stroke="#000000" d="M128,-198C128,-198 44,-198 44,-198 38,-198 32,-192 32,-186 32,-186 32,-174 32,-174 32,-168 38,-162 44,-162 44,-162 128,-162 128,-162 134,-162 140,-168 140,-174 140,-174 140,-186 140,-186 140,-192 134,-198 128,-198"/>
<text text-anchor="middle" x="86" y="-176.3" font-family="Arial" font-size="14.00" fill="#000000">cpu_side_ports</text>
</g>
<!-- system_system_port&#45;&gt;system_membus_cpu_side_ports -->
<g id="edge1" class="edge">
<title>system_system_port&#45;&gt;system_membus_cpu_side_ports</title>
<path fill="none" stroke="black" d="M86,-291.74C86,-270.36 86,-233.69 86,-208.44"/>
<polygon fill="black" stroke="black" points="89.5,-208.4 86,-198.4 82.5,-208.4 89.5,-208.4"/>
</g>
<!-- system_cpu_port -->
<g id="node4" class="node">
<title>system_cpu_port</title>
<path fill="#94918b" stroke="#000000" d="M101,-68C101,-68 71,-68 71,-68 65,-68 59,-62 59,-56 59,-56 59,-44 59,-44 59,-38 65,-32 71,-32 71,-32 101,-32 101,-32 107,-32 113,-38 113,-44 113,-44 113,-56 113,-56 113,-62 107,-68 101,-68"/>
<text text-anchor="middle" x="86" y="-46.3" font-family="Arial" font-size="14.00" fill="#000000">port</text>
</g>
<!-- system_membus_cpu_side_ports&#45;&gt;system_cpu_port -->
<g id="edge2" class="edge">
<title>system_membus_cpu_side_ports&#45;&gt;system_cpu_port</title>
<path fill="none" stroke="black" d="M86,-151.72C86,-126.52 86,-89.84 86,-68.4"/>
<polygon fill="black" stroke="black" points="82.5,-151.74 86,-161.74 89.5,-151.74 82.5,-151.74"/>
</g>
<!-- system_membus_mem_side_ports -->
<g id="node3" class="node">
<title>system_membus_mem_side_ports</title>
<path fill="#586070" stroke="#000000" d="M264,-198C264,-198 170,-198 170,-198 164,-198 158,-192 158,-186 158,-186 158,-174 158,-174 158,-168 164,-162 170,-162 170,-162 264,-162 264,-162 270,-162 276,-168 276,-174 276,-174 276,-186 276,-186 276,-192 270,-198 264,-198"/>
<text text-anchor="middle" x="217" y="-176.3" font-family="Arial" font-size="14.00" fill="#000000">mem_side_ports</text>
</g>
<!-- system_tlm_port -->
<g id="node5" class="node">
<title>system_tlm_port</title>
<path fill="#94918b" stroke="#000000" d="M232,-328C232,-328 202,-328 202,-328 196,-328 190,-322 190,-316 190,-316 190,-304 190,-304 190,-298 196,-292 202,-292 202,-292 232,-292 232,-292 238,-292 244,-298 244,-304 244,-304 244,-316 244,-316 244,-322 238,-328 232,-328"/>
<text text-anchor="middle" x="217" y="-306.3" font-family="Arial" font-size="14.00" fill="#000000">port</text>
</g>
<!-- system_tlm_port&#45;&gt;system_membus_mem_side_ports -->
<g id="edge3" class="edge">
<title>system_tlm_port&#45;&gt;system_membus_mem_side_ports</title>
<path fill="none" stroke="black" d="M217,-281.72C217,-256.52 217,-219.84 217,-198.4"/>
<polygon fill="black" stroke="black" points="213.5,-281.74 217,-291.74 220.5,-281.74 213.5,-281.74"/>
</g>
</g>
</svg>
